<svg width="24" height="24" viewBox="0 0 24 24" fill="none" xmlns="http://www.w3.org/2000/svg">
<g clip-path="url(#clip0_1369_1167)">
<path d="M17.28 2.40094C18.4249 2.40347 19.5223 2.85943 20.3319 3.66904C21.1415 4.47865 21.5974 5.57598 21.6 6.72094V17.2809C21.5974 18.4259 21.1415 19.5232 20.3319 20.3328C19.5223 21.1424 18.4249 21.5984 17.28 21.6009H6.71996C5.57667 21.5959 4.48179 21.1388 3.67426 20.3295C2.86672 19.5201 2.41208 18.4242 2.40956 17.2809V6.72094C2.41208 5.57764 2.86672 4.48175 3.67426 3.67241C4.48179 2.86308 5.57667 2.406 6.71996 2.40094H17.28ZM17.28 0.960938H6.71996C5.19231 0.960938 3.72724 1.56779 2.64703 2.648C1.56682 3.72821 0.959961 5.19329 0.959961 6.72094L0.959961 17.2809C0.959961 18.8086 1.56682 20.2737 2.64703 21.3539C3.72724 22.4341 5.19231 23.0409 6.71996 23.0409H17.28C18.8076 23.0409 20.2727 22.4341 21.3529 21.3539C22.4331 20.2737 23.04 18.8086 23.04 17.2809V6.72094C23.04 5.19329 22.4331 3.72821 21.3529 2.648C20.2727 1.56779 18.8076 0.960938 17.28 0.960938V0.960938Z" fill="#192144"/>
<path d="M12.0095 7.75642C12.8507 7.75642 13.6729 8.00584 14.3723 8.47314C15.0716 8.94045 15.6167 9.60464 15.9386 10.3817C16.2605 11.1588 16.3447 12.0139 16.1806 12.8389C16.0165 13.6639 15.6115 14.4216 15.0167 15.0164C14.422 15.6112 13.6642 16.0162 12.8392 16.1803C12.0143 16.3444 11.1592 16.2602 10.3821 15.9383C9.60496 15.6164 8.94076 15.0713 8.47346 14.3719C8.00616 13.6726 7.75673 12.8503 7.75673 12.0092C7.75547 11.4504 7.86461 10.8968 8.07788 10.3802C8.29115 9.8637 8.60437 9.39437 8.99953 8.99921C9.39469 8.60405 9.86402 8.29084 10.3806 8.07756C10.8971 7.86429 11.4507 7.75515 12.0095 7.75642ZM12.0095 6.31641C10.8832 6.31451 9.78161 6.64678 8.84417 7.27115C7.90673 7.89553 7.17558 8.78396 6.74323 9.82402C6.31088 10.8641 6.19678 12.009 6.41535 13.1139C6.63392 14.2189 7.17535 15.2341 7.97112 16.0312C8.76689 16.8283 9.78123 17.3715 10.8858 17.5919C11.9903 17.8124 13.1355 17.7002 14.1763 17.2696C15.217 16.839 16.1067 16.1093 16.7327 15.173C17.3586 14.2366 17.6927 13.1356 17.6927 12.0092C17.694 11.2621 17.5479 10.522 17.2629 9.8314C16.9778 9.14077 16.5594 8.51313 16.0316 7.98438C15.5037 7.45563 14.8768 7.03615 14.1866 6.74994C13.4965 6.46373 12.7567 6.31641 12.0095 6.31641Z" fill="#192144"/>
<path d="M17.9041 7.41264C18.6145 7.41264 19.1905 6.8367 19.1905 6.12624C19.1905 5.41578 18.6145 4.83984 17.9041 4.83984C17.1936 4.83984 16.6177 5.41578 16.6177 6.12624C16.6177 6.8367 17.1936 7.41264 17.9041 7.41264Z" fill="#192144"/>
</g>
<defs>
<clipPath id="clip0_1369_1167">
<rect width="24" height="24" fill="white"/>
</clipPath>
</defs>
</svg>
