<svg width="18" height="20" viewBox="0 0 18 20" fill="none" xmlns="http://www.w3.org/2000/svg">
<g clip-path="url(#clip0_1369_1042)">
<path opacity="0.15" d="M4.50106 13.5714C4.50106 13.1771 4.35463 12.8404 4.06179 12.5614C3.76894 12.2824 3.41557 12.1429 3.00168 12.1429C2.58779 12.1429 2.23442 12.2824 1.94158 12.5614C1.64873 12.8404 1.50231 13.1771 1.50231 13.5714C1.50231 13.9658 1.64873 14.3025 1.94158 14.5815C2.23442 14.8605 2.58779 15 3.00168 15C3.41557 15 3.76894 14.8605 4.06179 14.5815C4.35463 14.3025 4.50106 13.9658 4.50106 13.5714ZM16.4961 13.5714C16.4961 13.1771 16.3496 12.8404 16.0568 12.5614C15.7639 12.2824 15.4106 12.1429 14.9967 12.1429C14.5828 12.1429 14.2294 12.2824 13.9366 12.5614C13.6437 12.8404 13.4973 13.1771 13.4973 13.5714C13.4973 13.9658 13.6437 14.3025 13.9366 14.5815C14.2294 14.8605 14.5828 15 14.9967 15C15.4106 15 15.7639 14.8605 16.0568 14.5815C16.3496 14.3025 16.4961 13.9658 16.4961 13.5714ZM15.9572 9.15179L15.1138 4.86607C15.0748 4.69494 14.9869 4.55543 14.8503 4.44754C14.7136 4.33966 14.5555 4.28571 14.3758 4.28571H3.62252C3.4429 4.28571 3.28477 4.33966 3.1481 4.44754C3.01144 4.55543 2.92359 4.69494 2.88454 4.86607L2.04114 9.15179C2.0021 9.375 2.05676 9.57217 2.20514 9.7433C2.35351 9.91443 2.54484 10 2.77912 10H15.2192C15.4535 10 15.6449 9.91443 15.7932 9.7433C15.9416 9.57217 15.9963 9.375 15.9572 9.15179ZM13.3099 2.32143C13.3099 2.17262 13.2552 2.04613 13.1459 1.94196C13.0366 1.8378 12.9038 1.78571 12.7476 1.78571H5.25074C5.09456 1.78571 4.9618 1.8378 4.85247 1.94196C4.74314 2.04613 4.68848 2.17262 4.68848 2.32143C4.68848 2.47024 4.74314 2.59673 4.85247 2.70089C4.9618 2.80506 5.09456 2.85714 5.25074 2.85714H12.7476C12.9038 2.85714 13.0366 2.80506 13.1459 2.70089C13.2552 2.59673 13.3099 2.47024 13.3099 2.32143ZM17.9954 10.4129V17.1429H16.4961V18.5714C16.4961 18.9658 16.3496 19.3025 16.0568 19.5815C15.7639 19.8605 15.4106 20 14.9967 20C14.5828 20 14.2294 19.8605 13.9366 19.5815C13.6437 19.3025 13.4973 18.9658 13.4973 18.5714V17.1429H4.50106V18.5714C4.50106 18.9658 4.35463 19.3025 4.06179 19.5815C3.76894 19.8605 3.41557 20 3.00168 20C2.58779 20 2.23442 19.8605 1.94158 19.5815C1.64873 19.3025 1.50231 18.9658 1.50231 18.5714V17.1429H0.00292969V10.4129C0.00292969 9.57961 0.100545 8.75 0.295776 7.92411L1.50231 2.85714C1.57259 2.27679 1.95329 1.76711 2.64441 1.32812C3.33553 0.889137 4.23359 0.558036 5.3386 0.334821C6.44361 0.111607 7.6638 0 8.99918 0C10.3346 0 11.5548 0.111607 12.6598 0.334821C13.7648 0.558036 14.6628 0.889137 15.354 1.32812C16.0451 1.76711 16.4258 2.27679 16.4961 2.85714L17.726 7.92411C17.9056 8.68304 17.9954 9.51265 17.9954 10.4129Z" fill="#1D2E5B"/>
</g>
<defs>
<clipPath id="clip0_1369_1042">
<rect width="18" height="20" fill="white"/>
</clipPath>
</defs>
</svg>
