<svg width="42" height="42" viewBox="0 0 42 42" fill="none" xmlns="http://www.w3.org/2000/svg">
<path d="M21 0C12.3034 0 5.25 7.05337 5.25 15.75C5.25 25.8667 12.8569 30.2898 14.5385 32.3077C18.5769 37.1538 18.8051 42 21 42C23.1949 42 23.4231 37.1538 27.4615 32.3077C29.1431 30.2898 36.75 25.8667 36.75 15.75C36.75 7.05337 29.6966 0 21 0ZM21 26.25C15.2014 26.25 10.5 21.5486 10.5 15.75C10.5 9.95137 15.2014 5.25 21 5.25C26.7986 5.25 31.5 9.95137 31.5 15.75C31.5 21.5486 26.7986 26.25 21 26.25ZM21 10.5C18.102 10.5 15.75 12.852 15.75 15.75C15.75 18.648 18.102 21 21 21C23.898 21 26.25 18.648 26.25 15.75C26.25 12.852 23.898 10.5 21 10.5Z" fill="#FFD74B"/>
<ellipse cx="21" cy="15.75" rx="1.75" ry="1.75" fill="#161C35"/>
</svg>
