<svg width="47" height="50" viewBox="0 0 47 50" fill="none" xmlns="http://www.w3.org/2000/svg">
<path fill-rule="evenodd" clip-rule="evenodd" d="M37.2786 32.9327L28.6177 25L37.2786 17.0673L36.0976 15.8053L23.4999 27.3438L10.9023 15.8053L9.72131 17.0673L18.3822 25L9.72131 32.9327L10.9023 34.1947L19.6616 26.1719L23.4999 29.6875L27.3383 26.1719L36.0976 34.1947L37.2786 32.9327ZM8.15187 12.5C6.53384 12.5 5.22217 13.8977 5.22217 15.6157V34.3843C5.22217 36.105 6.5232 37.5 8.15187 37.5H38.848C40.4661 37.5 41.7777 36.1023 41.7777 34.3843V15.6157C41.7777 13.895 40.4767 12.5 38.848 12.5H8.15187Z" fill="#FFD74B"/>
</svg>
