<svg width="22" height="24" viewBox="0 0 22 24" fill="none" xmlns="http://www.w3.org/2000/svg">
<path opacity="0.15" d="M15.4544 6C16.4586 6 17.2726 5.10457 17.2726 4C17.2726 2.89543 16.4586 2 15.4544 2C14.4503 2 13.6362 2.89543 13.6362 4C13.6362 5.10457 14.4503 6 15.4544 6Z" fill="#1D2E5B"/>
<path opacity="0.15" d="M14.343 10.969C14.5517 11.311 14.851 11.5742 15.2004 11.7227C15.5497 11.8712 15.9321 11.8978 16.2957 11.799L19.3103 10.97L18.8712 9.02997L15.8566 9.85897L14.603 7.79197C14.3352 7.35053 13.9195 7.04354 13.4466 6.93797L9.95027 6.16797C9.55912 6.08162 9.15302 6.13933 8.79466 6.33217C8.4363 6.52502 8.14563 6.84229 7.96754 7.23497L6.46027 10.551L8.08663 11.446L9.5939 8.12897L11.3821 8.52297L6.75845 17H2.72754V19H6.75845C7.39299 19 7.99027 18.628 8.31754 18.029L10.0612 14.833L14.7603 15.867L16.4112 21.316L18.1348 20.683L16.4848 15.235C16.383 14.9005 16.2028 14.6014 15.9625 14.3679C15.7221 14.1345 15.4301 13.9748 15.1157 13.905L12.353 13.298L13.9639 10.344L14.343 10.969Z" fill="#1D2E5B"/>
</svg>
