<svg width="16" height="14" viewBox="0 0 16 14" fill="none" xmlns="http://www.w3.org/2000/svg">
<path d="M1.25901 2.60026L7.25901 6.36066C7.46061 6.48666 7.72141 6.54639 7.98381 6.54639C8.24621 6.54639 8.50701 6.48666 8.70861 6.36066L14.7086 2.60026C15.0998 2.35479 15.4694 1.39999 14.7518 1.39999H1.21661C0.499006 1.39999 0.868606 2.35479 1.25901 2.60026ZM14.8902 4.65639L8.70861 8.41493C8.43661 8.58106 8.24621 8.60066 7.98381 8.60066C7.72141 8.60066 7.53101 8.58106 7.25901 8.41493C6.98701 8.24879 1.55261 4.92519 1.10861 4.65546C0.796606 4.46506 0.799806 4.68813 0.799806 4.85986V11.6667C0.799806 12.0587 1.25261 12.6 1.59981 12.6H14.3998C14.747 12.6 15.1998 12.0587 15.1998 11.6667V4.86079C15.1998 4.68906 15.203 4.46599 14.8902 4.65639Z" fill="#161C35"/>
</svg>
