<svg width="36" height="34" viewBox="0 0 36 34" fill="none" xmlns="http://www.w3.org/2000/svg">
<path fill-rule="evenodd" clip-rule="evenodd" d="M17.9999 2.17236C12.407 2.17236 6.80065 3.1177 4.76644 5.00191C3.07869 6.56509 2.51608 9.32664 2.32643 11.0751C2.32643 11.0751 2.30029 11.2479 2.30029 11.3222C2.30029 12.0079 2.88889 12.5578 3.60853 12.5578C3.69357 12.5578 6.84004 12.3168 8.73702 12.1686C8.78267 12.1623 8.82868 12.1562 8.87433 12.1439C9.58086 12.1255 10.1501 11.5817 10.1501 10.9083L10.1564 8.47406C10.1564 7.72035 10.8043 7.11481 11.6024 7.11481H24.3973C25.1956 7.11481 25.8435 7.72028 25.8435 8.47406L25.8499 10.9083C25.8499 11.5817 26.4191 12.1255 27.1255 12.1439C27.1709 12.1563 27.2169 12.1623 27.2631 12.1686C29.1602 12.3167 32.3066 12.5578 32.3913 12.5578C33.1107 12.5578 33.6997 12.0079 33.6997 11.3222C33.6997 11.2479 33.6736 11.0751 33.6736 11.0751C33.4838 9.32664 32.9218 6.56516 31.234 5.00191C29.1991 3.1177 23.5928 2.17236 17.9999 2.17236ZM17.9999 18.2355C16.5542 18.2355 15.3833 19.3413 15.3833 20.7067C15.3833 22.0721 16.5542 23.1778 17.9999 23.1778C19.4456 23.1778 20.6165 22.0721 20.6165 20.7067C20.6165 19.3413 19.4456 18.2355 17.9999 18.2355ZM16.0375 12.6751V11.1306C16.0375 10.2781 15.3047 9.58613 14.4021 9.58613C13.4995 9.58613 12.7668 10.2782 12.7668 11.1306V12.6751L3.94189 21.5779C3.33378 22.1402 2.95427 22.9245 2.95427 23.7897V26.2671C2.95427 27.6325 4.12528 28.7383 5.57089 28.7383H6.22509V30.2829C6.22509 31.1354 6.9579 31.8273 7.8605 31.8273C8.76309 31.8273 9.49583 31.1354 9.49583 30.2829V28.7383H26.504V30.2829C26.504 31.1354 27.2365 31.8273 28.1394 31.8273C29.042 31.8273 29.7746 31.1354 29.7746 30.2829V28.7383H30.4288C31.8745 28.7383 33.0454 27.6325 33.0454 26.2671V23.7897C33.0454 22.9245 32.6659 22.1401 32.0578 21.5779L23.2332 12.6751V11.1306C23.2332 10.2781 22.5003 9.58613 21.5977 9.58613C20.6951 9.58613 19.9625 10.2782 19.9625 11.1306V12.6751H16.0375ZM17.9999 15.7643C20.8913 15.7643 23.2332 17.976 23.2332 20.7067C23.2332 23.4375 20.8913 25.6494 17.9999 25.6494C15.1085 25.6494 12.7667 23.4375 12.7667 20.7067C12.7667 17.976 15.1085 15.7643 17.9999 15.7643Z" fill="#FFD74B"/>
</svg>
