<svg width="32" height="17" viewBox="0 0 32 17" fill="none" xmlns="http://www.w3.org/2000/svg">
<path d="M25.9461 15.7775C25.2083 15.761 24.4891 15.5431 23.8661 15.1475C23.2157 14.7079 22.6184 14.1945 22.0861 13.6175C21.6461 13.1775 20.9161 12.4375 20.6361 12.4375C20.3561 12.4375 20.1561 13.3575 20.1661 14.0075C20.1703 14.4562 20.0021 14.8894 19.6961 15.2175C19.3481 15.5018 18.9234 15.6758 18.4761 15.7175H16.5561C13.7965 15.6568 11.1541 14.59 9.12606 12.7175C5.44606 9.34753 2.28606 2.90753 2.15606 2.62753C2.03206 2.39361 1.98013 2.12821 2.00683 1.86481C2.03353 1.6014 2.13765 1.35181 2.30606 1.14753C2.6872 0.829675 3.16985 0.659328 3.66606 0.667532H7.74606H7.86606C8.20364 0.716784 8.52722 0.835995 8.81606 1.01753C9.08788 1.1998 9.30552 1.45198 9.44606 1.74753C9.87724 2.6706 10.3717 3.56273 10.9261 4.41753C12.2361 6.41753 12.8161 6.87753 13.0261 6.97753C13.2597 6.03979 13.324 5.06788 13.2161 4.10753C13.2511 3.67014 13.179 3.2308 13.0061 2.82753C12.7865 2.65191 12.5169 2.55038 12.2361 2.53753L11.5061 1.84753C11.3661 1.18753 12.0961 0.617532 12.6061 0.397532C13.6238 0.0786297 14.6916 -0.0501836 15.7561 0.017532H16.4661C17.1881 -0.00127074 17.9099 0.0658674 18.6161 0.217532C20.3161 0.577532 20.2561 1.94753 20.1861 3.52753C20.1861 3.98753 20.1361 4.52753 20.1361 5.14753C20.1361 5.29753 20.1361 5.45753 20.1361 5.62753C20.0967 6.06289 20.1271 6.50174 20.2261 6.92753C21.0586 6.23108 21.7597 5.39116 22.2961 4.44753C22.875 3.55527 23.3832 2.61908 23.8161 1.64753C23.9479 1.34025 24.1739 1.08272 24.4614 0.912012C24.7489 0.741299 25.0832 0.666204 25.4161 0.697532H29.6961C29.8224 0.685471 29.9497 0.685471 30.0761 0.697532C31.0761 0.697532 31.6661 0.987532 31.9061 1.54753C32.1461 2.10753 32.0761 3.20753 29.5461 6.15753L28.5461 7.28753C28.0616 7.75797 27.6443 8.29301 27.3061 8.87753C27.6848 9.30811 28.1147 9.69093 28.5861 10.0175C29.7353 10.8835 30.7468 11.9186 31.5861 13.0875C31.7829 13.3148 31.9117 13.593 31.9576 13.8901C32.0036 14.1873 31.965 14.4914 31.8461 14.7675C31.6365 15.0734 31.3561 15.3241 31.0288 15.4982C30.7014 15.6723 30.3368 15.7647 29.9661 15.7675L26.1761 15.8175L25.9461 15.7775ZM20.6361 10.9375C21.5361 10.9375 22.3161 11.7275 23.1461 12.5575C23.5944 13.0471 24.0977 13.4833 24.6461 13.8575C25.0607 14.1333 25.5481 14.2795 26.0461 14.2775H26.1461L29.9461 14.2275C30.1335 14.2168 30.317 14.1692 30.4861 14.0875L30.3861 13.9275C29.6291 12.8959 28.7263 11.9797 27.7061 11.2075C26.5161 10.2075 25.9061 9.73753 25.8361 8.96753C25.7661 8.19753 26.3261 7.52753 27.4461 6.25753L28.4461 5.14753C29.2903 4.28639 29.9834 3.28908 30.4961 2.19753C30.2729 2.1843 30.0492 2.1843 29.8261 2.19753H25.4561C25.377 2.17986 25.2951 2.17986 25.2161 2.19753C24.7532 3.25898 24.2012 4.27929 23.5661 5.24753C21.6761 8.06753 20.7861 8.44753 20.1561 8.44753C19.9607 8.44753 19.7684 8.39945 19.5961 8.30753C18.5961 7.73753 18.5961 6.46753 18.6561 5.54753C18.6561 5.39753 18.6561 5.24753 18.6561 5.11753C18.6561 4.46753 18.6561 3.90753 18.7061 3.42753C18.7861 1.74753 18.7061 1.73753 18.3261 1.64753C17.7138 1.52655 17.09 1.4729 16.4661 1.48753H15.7761C15.1411 1.47441 14.5061 1.50784 13.8761 1.58753C13.9715 1.65784 14.0558 1.74212 14.1261 1.83753C14.5385 2.48787 14.7442 3.24794 14.7161 4.01753C14.8461 5.66753 14.7761 7.81753 13.7161 8.33753C13.5284 8.42537 13.3233 8.4698 13.1161 8.46753C12.1861 8.46753 11.2661 7.58753 9.69606 5.20753C9.09358 4.29624 8.5556 3.34392 8.08606 2.35753L8.00606 2.25753C7.90508 2.20606 7.79736 2.16903 7.68606 2.14753H3.68606H3.61606C4.20606 3.36753 7.00606 8.76753 10.1361 11.5975C11.8936 13.2122 14.1708 14.1451 16.5561 14.2275H18.4061C18.5004 14.2074 18.5914 14.1737 18.6761 14.1275C18.6761 14.1275 18.6761 14.1275 18.6761 14.0375C18.6761 13.7675 18.6761 11.4375 20.2561 11.0375C20.3784 10.9894 20.5059 10.9558 20.6361 10.9375Z" fill="#192144"/>
</svg>
