<svg width="25" height="25" viewBox="0 0 25 25" fill="none" xmlns="http://www.w3.org/2000/svg">
<path opacity="0.15" d="M18.9453 21.875C18.0568 21.875 17.1883 21.6115 16.4496 21.1179C15.7109 20.6243 15.1351 19.9227 14.7951 19.1019C14.4551 18.2811 14.3661 17.3778 14.5394 16.5064C14.7128 15.635 15.1406 14.8346 15.7689 14.2064C16.3971 13.5781 17.1975 13.1503 18.0689 12.9769C18.9403 12.8036 19.8436 12.8926 20.6644 13.2326C21.4852 13.5726 22.1868 14.1484 22.6804 14.8871C23.174 15.6258 23.4375 16.4943 23.4375 17.3828C23.4362 18.5738 22.9625 19.7157 22.1203 20.5578C21.2782 21.4 20.1363 21.8737 18.9453 21.875ZM18.9453 14.4531C18.3659 14.4531 17.7995 14.6249 17.3177 14.9469C16.8359 15.2688 16.4604 15.7263 16.2386 16.2617C16.0169 16.797 15.9589 17.3861 16.0719 17.9544C16.185 18.5227 16.464 19.0447 16.8737 19.4544C17.2834 19.8641 17.8055 20.1432 18.3738 20.2562C18.9421 20.3692 19.5311 20.3112 20.0665 20.0895C20.6018 19.8678 21.0593 19.4922 21.3813 19.0105C21.7032 18.5287 21.875 17.9623 21.875 17.3828C21.8741 16.6061 21.5651 15.8614 21.0159 15.3122C20.4667 14.763 19.722 14.454 18.9453 14.4531Z" fill="#1D2E5B"/>
<path opacity="0.15" d="M6.05469 21.875C5.16622 21.875 4.2977 21.6115 3.55896 21.1179C2.82023 20.6243 2.24445 19.9227 1.90445 19.1019C1.56445 18.2811 1.47549 17.3778 1.64882 16.5064C1.82215 15.635 2.24999 14.8346 2.87823 14.2064C3.50648 13.5781 4.30691 13.1503 5.17831 12.9769C6.04971 12.8036 6.95294 12.8926 7.77378 13.2326C8.59461 13.5726 9.2962 14.1484 9.78981 14.8871C10.2834 15.6258 10.5469 16.4943 10.5469 17.3828C10.5456 18.5738 10.0719 19.7157 9.22972 20.5578C8.38755 21.4 7.24569 21.8737 6.05469 21.875ZM6.05469 14.4531C5.47525 14.4531 4.90883 14.6249 4.42704 14.9469C3.94526 15.2688 3.56975 15.7263 3.34801 16.2617C3.12627 16.797 3.06825 17.3861 3.1813 17.9544C3.29434 18.5227 3.57336 19.0447 3.98309 19.4544C4.39281 19.8641 4.91483 20.1432 5.48314 20.2562C6.05144 20.3692 6.6405 20.3112 7.17583 20.0895C7.71116 19.8678 8.16872 19.4922 8.49064 19.0105C8.81255 18.5287 8.98438 17.9623 8.98438 17.3828C8.98347 16.6061 8.67452 15.8614 8.12529 15.3122C7.57607 14.763 6.83141 14.454 6.05469 14.4531Z" fill="#1D2E5B"/>
<path opacity="0.15" d="M15.625 6.25005C15.8308 6.25076 16.0347 6.21067 16.2249 6.1321C16.4151 6.05352 16.5879 5.93802 16.7332 5.79227C16.8785 5.64651 16.9934 5.47341 17.0714 5.28295C17.1494 5.09249 17.1889 4.88847 17.1875 4.68267C17.1898 4.4779 17.1512 4.27473 17.0741 4.08504C16.9969 3.89535 16.8827 3.72295 16.7381 3.57792C16.5935 3.43289 16.4215 3.31814 16.232 3.24038C16.0426 3.16262 15.8395 3.12341 15.6348 3.12505C15.4296 3.12441 15.2263 3.16419 15.0365 3.24212C14.8466 3.32005 14.674 3.4346 14.5285 3.57924C14.3829 3.72388 14.2673 3.89577 14.1882 4.0851C14.1091 4.27442 14.068 4.47748 14.0674 4.68267C14.0667 4.88786 14.1065 5.09116 14.1845 5.28098C14.2624 5.4708 14.3769 5.64341 14.5216 5.78895C14.6662 5.9345 14.8381 6.05013 15.0274 6.12924C15.2168 6.20836 15.4198 6.24941 15.625 6.25005Z" fill="#1D2E5B"/>
<path opacity="0.15" d="M17.9468 9.37504H15.8101C15.775 9.37505 15.7406 9.36563 15.7104 9.34776C15.6803 9.32989 15.6555 9.30423 15.6387 9.27348L14.0889 6.43315C13.9797 6.22207 13.8223 6.03967 13.6295 5.90071C13.4367 5.76175 13.2139 5.67014 12.9791 5.6333C12.7444 5.59645 12.5042 5.6154 12.2781 5.68862C12.052 5.76183 11.8463 5.88725 11.6777 6.05473L8.2666 9.49223C7.98003 9.78473 7.81736 10.1765 7.8125 10.586C7.8125 11.4356 8.42773 11.7383 8.71582 11.9092C10.1074 12.711 11.0874 13.2974 11.625 13.6231C11.6536 13.6405 11.6772 13.6649 11.6936 13.6941C11.71 13.7233 11.7187 13.7561 11.7188 13.7896V17.1646C11.7188 17.585 12.042 17.9458 12.4624 17.9668C12.568 17.9719 12.6734 17.9555 12.7725 17.9187C12.8715 17.8818 12.962 17.8253 13.0386 17.7524C13.1151 17.6796 13.1761 17.5919 13.2178 17.4949C13.2595 17.3978 13.2811 17.2932 13.2813 17.1875V12.9883C13.2813 12.8643 13.2519 12.742 13.1953 12.6317C13.1388 12.5213 13.0568 12.426 12.9561 12.3536L11.1494 11.0542C11.1267 11.038 11.1078 11.0171 11.0939 10.993C11.0799 10.9688 11.0713 10.942 11.0687 10.9142C11.066 10.8864 11.0693 10.8584 11.0783 10.8321C11.0874 10.8057 11.1019 10.7815 11.1211 10.7613L13.1719 8.57426C13.1929 8.55176 13.219 8.53455 13.2479 8.52404C13.2768 8.51352 13.3079 8.51001 13.3384 8.51377C13.369 8.51753 13.3982 8.52846 13.4238 8.54568C13.4493 8.5629 13.4704 8.58591 13.4854 8.61284L14.5508 10.5357C14.6185 10.6576 14.7176 10.7591 14.8378 10.8298C14.958 10.9005 15.0949 10.9377 15.2344 10.9375H17.9688C18.0746 10.9377 18.1793 10.9163 18.2767 10.8747C18.374 10.8331 18.4618 10.7722 18.5349 10.6956C18.608 10.619 18.6647 10.5284 18.7017 10.4292C18.7387 10.3301 18.7551 10.2244 18.75 10.1187C18.7295 9.69829 18.3672 9.37504 17.9468 9.37504Z" fill="#1D2E5B"/>
</svg>
