<svg width="50" height="50" viewBox="0 0 50 50" fill="none" xmlns="http://www.w3.org/2000/svg">
<circle cx="25" cy="25" r="25" fill="#FF8D30"/>
<path d="M24.9741 23.4239C24.9741 23.6129 25.1277 23.7614 25.3155 23.7614C25.7047 23.7614 26.0187 24.0753 26.0187 24.4566C26.0187 24.6423 26.1724 24.7941 26.3601 24.7941C26.5479 24.7941 26.7015 24.6423 26.7015 24.4566C26.7015 23.7006 26.0802 23.0864 25.3155 23.0864C25.1277 23.0864 24.9741 23.2383 24.9741 23.4239ZM30.5318 24.7941C30.723 24.7941 30.8732 24.6423 30.8732 24.4566C30.8732 21.4259 28.3811 18.9621 25.3155 18.9621C25.1277 18.9621 24.9741 19.114 24.9741 19.2996C24.9741 19.4853 25.1277 19.6371 25.3155 19.6371C28.0056 19.6371 30.1904 21.8005 30.1904 24.4566C30.1904 24.6423 30.344 24.7941 30.5318 24.7941Z" fill="#161C35"/>
<path d="M28.1047 24.4566C28.1047 24.6423 28.2583 24.7941 28.446 24.7941C28.6338 24.7941 28.7874 24.6423 28.7874 24.4566C28.7874 22.5633 27.2307 21.0243 25.3156 21.0243C25.1278 21.0243 24.9742 21.1761 24.9742 21.3618C24.9742 21.5508 25.1278 21.6993 25.3156 21.6993C26.8552 21.6993 28.1047 22.9379 28.1047 24.4566ZM25.3156 16.9C25.1278 16.9 24.9742 17.0519 24.9742 17.2375C24.9742 17.4231 25.1278 17.575 25.3156 17.575C29.1561 17.575 32.2797 20.6631 32.2797 24.4566C32.2797 24.6423 32.43 24.7941 32.6211 24.7941C32.8089 24.7941 32.9625 24.6423 32.9625 24.4566C32.9625 20.2885 29.5316 16.9 25.3156 16.9ZM28.6509 28.0139L28.2037 28.2535C27.4492 28.6619 26.8621 29.7813 25.9311 28.9375L23.5001 26.5L21.4 24.4566C20.3449 23.1235 21.5263 22.8063 21.9394 22.057L22.1817 21.6183C22.4548 21.1188 22.5538 20.5585 22.4719 19.9983C22.3934 19.438 22.1374 18.9284 21.7277 18.5234C21.2293 18.0306 20.567 17.7606 19.8604 17.7606C19.1537 17.7606 18.488 18.0306 17.9896 18.5234L17.8155 18.6989C16.8938 19.6101 16.788 21.1795 17.5151 23.1235C18.2012 24.9798 19.5839 26.9913 21.4 28.7868C24.1686 31.5239 27.2512 33.1 29.4634 33.1C30.3373 33.1 31.0781 32.8536 31.6038 32.3339L31.7813 32.1584C32.2763 31.669 32.5528 31.0143 32.5563 30.3089C32.5528 29.6204 32.2695 28.9454 31.7813 28.4628C30.9586 27.6494 29.6716 27.4671 28.6509 28.0139Z" fill="#161C35"/>
</svg>
